<?xml version="1.0" encoding="iso-8859-1"?>
<!-- Uploaded to: SVG Repo, www.svgrepo.com, Generator: SVG Repo Mixer Tools -->
<svg fill="#4e4e4e" height="800px" width="800px" version="1.1" id="Layer_1" xmlns="http://www.w3.org/2000/svg" xmlns:xlink="http://www.w3.org/1999/xlink" 
	 viewBox="0 0 512 512" xml:space="preserve">
<g>
	<g>
		<path d="M508.829,189.755L260.846,1.63c-2.865-2.173-6.826-2.173-9.691,0l-98.304,74.574V50.239h9.086
			c4.427,0,8.017-3.588,8.017-8.017V8.018c0-4.428-3.589-8.017-8.017-8.017H42.221c-4.427,0-8.017,3.588-8.017,8.017v34.205
			c0,4.428,3.589,8.017,8.017,8.017h9.086v103L3.173,189.755c-2.743,2.081-3.851,5.68-2.753,8.943
			c1.098,3.262,4.156,5.46,7.598,5.46h39.015v214.317c0,4.428,3.589,8.017,8.017,8.017c4.427,0,8.017-3.588,8.017-8.017V196.142
			c0-4.428-3.589-8.017-8.017-8.017H31.849L256,18.08L480.15,188.126h-23.199c-4.428,0-8.017,3.588-8.017,8.017v299.824H63.065
			v-34.739c0-4.428-3.589-8.017-8.017-8.017c-4.427,0-8.017,3.588-8.017,8.017v42.756c0,4.428,3.589,8.017,8.017,8.017h401.903
			c4.428,0,8.017-3.588,8.017-8.017V204.159h39.015c3.443,0,6.501-2.199,7.598-5.46C512.679,195.436,511.57,191.836,508.829,189.755
			z M50.238,34.205V16.034H153.92v18.171H50.238z M67.34,141.075V50.239h69.478v37.945c0,0.06,0.007,0.119,0.009,0.179
			L67.34,141.075z"/>
	</g>
</g>
<g>
	<g>
		<path d="M375.715,340.976c4.428,0,8.017-3.588,8.017-8.017v-35.272c0-13.261-10.789-24.05-24.05-24.05h-5.879v-47.566
			c0-53.929-43.875-97.804-97.804-97.804s-97.804,43.875-97.804,97.804v47.566h-5.879c-13.262,0-24.05,10.789-24.05,24.05v163.54
			c0,4.428,3.589,8.017,8.017,8.017h239.432c4.428,0,8.017-3.588,8.017-8.017v-85.511c0-4.428-3.588-8.017-8.017-8.017
			c-4.428,0-8.017,3.588-8.017,8.017v77.495H144.3V297.687c0-4.421,3.596-8.017,8.017-8.017h207.365
			c4.421,0,8.017,3.596,8.017,8.017v35.272C367.699,337.388,371.287,340.976,375.715,340.976z M312.116,273.637H199.883v-47.566
			c0-30.942,25.173-56.117,56.117-56.117c30.942,0,56.117,25.175,56.117,56.117V273.637z M337.77,273.637h-9.62v-47.566
			c0-39.784-32.366-72.15-72.15-72.15s-72.15,32.366-72.15,72.15v47.566h-9.62v-47.566c0-45.089,36.682-81.77,81.77-81.77
			c45.089,0,81.77,36.681,81.77,81.77V273.637z"/>
	</g>
</g>
<g>
	<g>
		<path d="M256,307.842c-23.28,0-42.221,18.941-42.221,42.221c0,13.411,6.45,26.017,17.102,33.924v27.002
			c0,13.261,10.789,24.05,24.05,24.05h2.138c13.261,0,24.05-10.789,24.05-24.05v-27.002c10.653-7.907,17.102-20.513,17.102-33.924
			C298.221,326.782,279.28,307.842,256,307.842z M269.087,372.741c-2.477,1.432-4.002,4.077-4.002,6.938v31.31
			c0,4.421-3.596,8.017-8.017,8.017h-2.138c-4.421,0-8.017-3.596-8.017-8.017v-31.31c0-2.861-1.525-5.505-4.002-6.938
			c-8.08-4.677-13.1-13.366-13.1-22.679c0-14.441,11.748-26.188,26.188-26.188c14.441,0,26.188,11.747,26.188,26.188
			C282.187,359.375,277.168,368.065,269.087,372.741z"/>
	</g>
</g>
</svg>