<svg width="40" height="40" fill="none" xmlns="http://www.w3.org/2000/svg"><mask id="a" maskUnits="userSpaceOnUse" x="2" y="2" width="35" height="35"><path fillRule="evenodd" clipRule="evenodd" d="M27.571 6.567C21.895.651 12.483.457 6.567 6.134.65 11.811.457 21.223 6.134 27.138l4.484 4.674c5.677 5.915 15.089 6.11 21.005.433 5.916-5.677 6.11-15.089.433-21.005L27.57 6.567z" fill="#FEEF7C"/></mask><g mask="url(#a)"><path fillRule="evenodd" clipRule="evenodd" d="M28.588 9.922c2.87 2.317 4.273 5.31 4.534 8.933-.218 6.99-3.517 11.484-9.183 13.411-6.546 1.972-10.695.377-14.709-3.713l-.668 4.158c6.98 4.587 17.118 6.867 23.537.536 6.593-6.501 6.677-17.794-1.174-24.497l-2.337 1.172z" fill="#FEEF7C"/></g><mask id="b" maskUnits="userSpaceOnUse" x="2" y="2" width="36" height="36"><path fillRule="evenodd" clipRule="evenodd" d="M28.382 7.378c-5.677-5.916-15.088-6.11-21.005-.433-5.915 5.676-6.11 15.088-.433 21.004l4.485 4.673c5.677 5.916 15.089 6.11 21.004.434 5.916-5.677 6.11-15.089.434-21.005l-4.485-4.673z" fill="#5CD3CB"/></mask><g mask="url(#b)"><path fillRule="evenodd" clipRule="evenodd" d="M7.382 29.96l1.795-1.567C5.08 22.586 4.908 14.085 10.516 9.405c4.156-3.469 12.404-5.267 19.003.543L30.54 8.15c-5.396-5.99-13.543-6.744-18.766-4.69C-1.043 8.505.932 25.389 7.382 29.962z" fill="#5CD3CB"/></g><path d="M4.646 19.64c0 8.22 6.665 14.883 14.885 14.883 8.22 0 14.885-6.664 14.885-14.884S27.752 4.755 19.53 4.755c-8.22 0-14.885 6.664-14.885 14.886zm10.36 2.691a1.22 1.22 0 00-.433-1.345L9.84 17.45a.61.61 0 01.365-1.1h5.657c.526 0 .993-.337 1.159-.836l1.92-5.798a.61.61 0 011.158-.002l1.941 5.803c.167.498.633.834 1.158.834h5.67a.61.61 0 01.368 1.098l-4.727 3.56a1.22 1.22 0 00-.43 1.344l1.854 5.854a.61.61 0 01-.954.668l-4.716-3.62a1.22 1.22 0 00-1.49.003l-4.663 3.606a.61.61 0 01-.956-.667l1.853-5.867z" fill="#000"/></svg>